<?xml version="1.0" encoding="UTF-8"?>
<svg version="1.1" xmlns="http://www.w3.org/2000/svg" width="1200" height="708">
<path d="M0 0 C5.40524444 0.57188457 10.47623709 1.52319009 15.70092773 3.04345703 C16.4320962 3.25100742 17.16326466 3.45855782 17.91658974 3.67239761 C20.34055219 4.361966 22.76202668 5.05988314 25.18359375 5.7578125 C26.92192253 6.25407885 28.66040618 6.749803 30.39903259 7.24502563 C34.12619922 8.30784617 37.85229097 9.37432763 41.57757568 10.44372559 C47.51116056 12.14701173 53.44703508 13.84221712 59.38330078 15.53613281 C66.55529872 17.58319479 73.72677318 19.63207056 80.89754868 21.68341064 C93.0100672 25.14823618 105.12639404 28.5994443 117.24609375 32.0390625 C118.0879038 32.27797337 118.92971386 32.51688423 119.79703331 32.76303482 C123.992145 33.95352055 128.18734731 35.14368651 132.38259888 36.3336792 C137.40690856 37.75891051 142.43091057 39.18522416 147.45483398 40.61181641 C148.28368512 40.84717543 149.11253626 41.08253445 149.9665041 41.32502556 C151.63451685 41.79867396 153.30252915 42.27232394 154.970541 42.74597549 C176.16532189 48.76424561 197.36119591 54.77866481 218.55706787 60.79309082 C244.56590124 68.17323256 270.57364692 75.55720044 296.5809021 82.94290161 C314.39709662 88.00244866 332.21350388 93.06124167 350.03102493 98.11611557 C352.56857152 98.83602518 355.10610987 99.55596381 357.64364624 100.27590942 C367.27119416 103.00741912 367.27119416 103.00741912 376.89892578 105.73828125 C395.93859684 111.13806099 414.97318653 116.55505848 434 122 C434.93363496 132.62238285 435.14344672 143.13620904 435.12939453 153.7902832 C435.13073381 155.55296425 435.13249446 157.31564502 435.13463593 159.07832527 C435.1391426 163.88736488 435.13732416 168.69638335 435.13422441 173.50542331 C435.13230704 177.64100024 435.13393708 181.77657289 435.13556135 185.91214973 C435.13994788 197.16452763 435.13696785 208.41689291 435.13056505 219.66926938 C435.12589888 227.94644434 435.12351488 236.22361732 435.12231445 244.50079346 C435.10375057 352.00195084 434.60148162 459.50073459 434 567 C423.46856816 564.96140926 423.46856816 564.96140926 418.86328125 563.60571289 C417.97353104 563.34616821 417.08378082 563.08662354 416.16706848 562.81921387 C414.75405708 562.40016785 414.75405708 562.40016785 413.3125 561.97265625 C412.2839238 561.67161987 411.2553476 561.3705835 410.19560242 561.0604248 C406.79597081 560.06481784 403.39802358 559.06357994 400 558.0625 C395.09047891 556.62282792 390.18002396 555.18635407 385.26953125 553.75 C384.62864878 553.56234133 383.9877663 553.37468266 383.32746315 553.18133736 C372.48135506 550.00557566 361.62433289 546.86880416 350.76171875 543.75 C350.00520145 543.53272184 349.24868416 543.31544369 348.4692421 543.09158134 C341.72091271 541.15348605 334.9722527 539.21654819 328.22241211 537.28372192 C324.70381702 536.27615747 321.18572655 535.26684923 317.66797829 534.2563324 C315.74054566 533.70326481 313.8125017 533.15232914 311.88444519 532.60144043 C310.73881607 532.27220581 309.59318695 531.94297119 308.4128418 531.60375977 C307.41069138 531.3167067 306.40854095 531.02965363 305.37602234 530.73390198 C303 530 303 530 301 529 C301.00261841 530.09155899 301.00523682 531.18311798 301.00793457 532.30775452 C301.0804231 565.96597555 300.85470644 599.61989662 300.55461788 633.27648699 C300.49250796 640.25193781 300.43281422 647.22740881 300.37324238 654.20288169 C300.25136037 668.46861019 300.12670067 682.73431349 300 697 C287.70415759 694.03599087 275.55264859 690.65329103 263.40234375 687.14453125 C261.40079664 686.56877099 259.39917721 685.99326207 257.39749146 685.41798401 C252.02829652 683.87418163 246.66006979 682.32703774 241.29201126 680.77928925 C235.61315919 679.14261174 229.93337227 677.50918501 224.25366211 675.87548828 C214.95612684 673.20082537 205.65905299 670.52456488 196.36230469 667.84716797 C184.33911133 664.38474509 172.31451803 660.92721333 160.2890625 657.47265625 C159.39987373 657.21721228 158.51068497 656.9617683 157.59455109 656.6985836 C154.04786154 655.67971286 150.50116377 654.66087076 146.9544487 653.64208889 C138.09500038 651.09721819 129.2359034 648.55112537 120.37680817 646.00502586 C98.69790938 639.77459921 77.01822644 633.54690339 55.33834839 627.31988525 C50.44353876 625.91396931 45.54874346 624.50800345 40.6539526 623.10202217 C21.4064767 617.57338839 2.15882178 612.04537923 -17.08934021 606.51913452 C-24.49737384 604.39224091 -31.90532943 602.26507551 -39.31326771 600.13784981 C-44.32223432 598.69952244 -49.33124262 597.26134071 -54.34036255 595.82354736 C-55.28276826 595.55302362 -56.22517397 595.28249989 -57.19613743 595.00377846 C-59.06944018 594.46606936 -60.94276849 593.92844934 -62.81612301 593.39092064 C-67.32486385 592.09687981 -71.83291583 590.80053472 -76.33946228 589.49887085 C-84.32394054 587.19414028 -92.3113054 584.90466639 -100.31986237 582.68479156 C-103.89689019 581.69175071 -107.47062822 580.68718087 -111.04405212 579.68125916 C-112.72853614 579.21053268 -114.4146131 578.74546561 -116.10231018 578.28639221 C-118.41292131 577.65753872 -120.71740901 577.00974635 -123.02148438 576.35742188 C-123.70408829 576.17718979 -124.3866922 575.9969577 -125.08998108 575.81126404 C-129.62864951 574.49718662 -129.62864951 574.49718662 -131.16919804 572.43460655 C-132.37113584 568.9124126 -132.30818687 565.46099939 -132.31785583 561.78079224 C-132.32779947 560.93759812 -132.33774311 560.09440399 -132.34798807 559.22565854 C-132.37896428 556.36805513 -132.3954815 553.51055394 -132.41186523 550.65283203 C-132.43061009 548.57440948 -132.45006944 546.49599327 -132.4701786 544.41758347 C-132.52286637 538.63818805 -132.56164637 532.85877038 -132.5973618 527.07924795 C-132.62127001 523.35535926 -132.6487552 519.63151321 -132.67733574 515.90765762 C-133.21869191 444.80488026 -133.11597429 373.69867174 -133.07202852 302.59439206 C-133.06396524 289.40293495 -133.05859315 276.21147857 -133.05493164 263.02001953 C-133.05466892 262.07620945 -133.05440619 261.13239937 -133.05413551 260.15998898 C-133.05282944 255.42003409 -133.05156598 250.68007919 -133.05032361 245.94012427 C-133.04014 207.29341231 -133.02269843 168.64670654 -133 130 C-128.39913779 130.62936964 -124.04616871 131.43033512 -119.57641602 132.69555664 C-118.33432373 133.04479691 -117.09223145 133.39403717 -115.8125 133.75386047 C-114.45960684 134.13919207 -113.10674316 134.52462721 -111.75390625 134.91015625 C-110.32359217 135.31423286 -108.89316954 135.71792542 -107.46264648 136.1212616 C-103.62285192 137.20516046 -99.78468472 138.2947185 -95.94682693 139.38545227 C-92.76421931 140.28917786 -89.58066399 141.18953758 -86.39707851 142.08981133 C-57.24760237 150.33294316 -28.11880947 158.64925285 1 167 C0.97021844 166.13978556 0.94043688 165.27957111 0.90975285 164.39328957 C0.21275492 143.82249416 -0.14434307 123.27939295 -0.10139394 102.69603682 C-0.0949522 99.05937383 -0.09454077 95.42270907 -0.09336853 91.78604126 C-0.0903144 84.96250861 -0.08218485 78.13899284 -0.07201904 71.31546748 C-0.06066893 63.52039198 -0.05530089 55.72531548 -0.05032361 47.93023372 C-0.03999397 31.95347952 -0.0225151 15.97674197 0 0 Z " fill="#216744" transform="translate(140,7)"/>
<path d="M0 0 C4.60086221 0.62936964 8.95383129 1.43033512 13.42358398 2.69555664 C14.66377792 3.04425308 15.90397186 3.39294952 17.18174744 3.75221252 C18.53655917 4.13808976 19.89134023 4.52407469 21.24609375 4.91015625 C22.69366678 5.3191722 24.14134723 5.72780812 25.58912659 6.13609314 C29.4370366 7.22244559 33.28335611 8.3143306 37.12939453 9.4072876 C40.81247243 10.45281968 44.49714621 11.49267365 48.18164062 12.53320312 C76.80430851 20.6309327 105.39835976 28.82810279 134 37 C134.66 127.75 135.32 218.5 136 312 C151.81011059 317.00876517 151.81011059 317.00876517 167.75 321.4375 C175.73119201 323.4969899 183.61741299 325.77284642 191.49609375 328.19140625 C204.12922476 332.06843254 216.81508423 335.75311698 229.5144043 339.40673828 C233.29887107 340.49607698 237.08208845 341.58967794 240.86523438 342.68359375 C253.94758963 346.45713975 267.04523773 350.1485893 280.21150208 353.61962891 C287.19797449 355.47114612 294.10476767 357.52166721 301 359.6875 C302.15371094 360.04730957 303.30742187 360.40711914 304.49609375 360.77783203 C305.46675781 361.08060059 306.43742187 361.38336914 307.4375 361.6953125 C316.92006093 364.61562866 326.4593182 367.33922007 336 370.0625 C337.37043457 370.45379593 337.37043457 370.45379593 338.76855469 370.85299683 C350.5040973 374.19885889 362.26050541 377.43849229 374.05810547 380.55883789 C382.5530349 382.82825891 390.94813461 385.38132036 399.33959961 388.00512695 C408.09137826 390.74051747 416.88203347 393.32233546 425.70166016 395.83007812 C426.64702637 396.10142578 427.59239258 396.37277344 428.56640625 396.65234375 C429.81852905 397.00800415 429.81852905 397.00800415 431.09594727 397.37084961 C433 398 433 398 434 399 C434.09673063 401.7247049 434.12708012 404.42360341 434.11523438 407.14868164 C434.1152092 408.01654989 434.11518402 408.88441814 434.11515808 409.77858543 C434.11331069 412.71830822 434.10370454 415.65795041 434.09375 418.59765625 C434.08994726 420.69995594 434.08633046 422.80225597 434.08288574 424.90455627 C434.02638579 451.02913067 433.78752844 477.15300301 433.55461884 503.27648795 C433.49250563 510.25193842 433.43281422 517.22740913 433.37324238 524.20288169 C433.25136037 538.46861019 433.12670067 552.73431349 433 567 C420.70415759 564.03599087 408.55264859 560.65329103 396.40234375 557.14453125 C394.40079664 556.56877099 392.39917721 555.99326207 390.39749146 555.41798401 C385.02829652 553.87418163 379.66006979 552.32703774 374.29201126 550.77928925 C368.61315919 549.14261174 362.93337227 547.50918501 357.25366211 545.87548828 C347.95612684 543.20082537 338.65905299 540.52456488 329.36230469 537.84716797 C317.33911133 534.38474509 305.31451803 530.92721333 293.2890625 527.47265625 C292.39987373 527.21721228 291.51068497 526.9617683 290.59455109 526.6985836 C287.04786154 525.67971286 283.50116377 524.66087076 279.9544487 523.64208889 C271.09500038 521.09721819 262.2359034 518.55112537 253.37680817 516.00502586 C231.69790938 509.77459921 210.01822644 503.54690339 188.33834839 497.31988525 C183.44353876 495.91396931 178.54874346 494.50800345 173.6539526 493.10202217 C154.4064767 487.57338839 135.15882178 482.04537923 115.91065979 476.51913452 C108.50262616 474.39224091 101.09467057 472.26507551 93.68673229 470.13784981 C88.67776568 468.69952244 83.66875738 467.26134071 78.65963745 465.82354736 C77.71723174 465.55302362 76.77482603 465.28249989 75.80386257 465.00377846 C73.93055982 464.46606936 72.05723151 463.92844934 70.18387699 463.39092064 C65.67513615 462.09687981 61.16708417 460.80053472 56.66053772 459.49887085 C48.67605946 457.19414028 40.6886946 454.90466639 32.68013763 452.68479156 C29.10310981 451.69175071 25.52937178 450.68718087 21.95594788 449.68125916 C20.27146386 449.21053268 18.5853869 448.74546561 16.89768982 448.28639221 C14.58707869 447.65753872 12.28259099 447.00974635 9.97851562 446.35742188 C9.29591171 446.17718979 8.6133078 445.9969577 7.91001892 445.81126404 C3.37135049 444.49718662 3.37135049 444.49718662 1.83080196 442.43460655 C0.62886416 438.9124126 0.69181313 435.46099939 0.68214417 431.78079224 C0.67220053 430.93759812 0.66225689 430.09440399 0.65201193 429.22565854 C0.62103572 426.36805513 0.6045185 423.51055394 0.58813477 420.65283203 C0.56938991 418.57440948 0.54993056 416.49599327 0.5298214 414.41758347 C0.47713363 408.63818805 0.43835363 402.85877038 0.4026382 397.07924795 C0.37872999 393.35535926 0.3512448 389.63151321 0.32266426 385.90765762 C-0.21869191 314.80488026 -0.11597429 243.69867174 -0.07202852 172.59439206 C-0.06396524 159.40293495 -0.05859315 146.21147857 -0.05493164 133.02001953 C-0.05466892 132.07620945 -0.05440619 131.13239937 -0.05413551 130.15998898 C-0.05282944 125.42003409 -0.05156598 120.68007919 -0.05032361 115.94012427 C-0.04014 77.29341231 -0.02269843 38.64670654 0 0 Z " fill="#FB0205" transform="translate(7,137)"/>
<path d="M0 0 C0.98671237 10.23698598 1.14291073 20.4056436 1.12939453 30.67675781 C1.13073348 32.43929136 1.13249396 34.20182462 1.13463593 35.96435738 C1.1391468 40.77758828 1.13732238 45.5907981 1.13422441 50.40402937 C1.13230827 54.54204146 1.13393652 58.68004925 1.13556135 62.81806123 C1.13994976 74.07779561 1.13696582 85.33751739 1.13056505 96.59725034 C1.12590009 104.8801211 1.12351516 113.16298988 1.12231445 121.44586182 C1.10375562 228.96533126 0.60158407 336.4824228 0 444 C-10.53143184 441.96140926 -10.53143184 441.96140926 -15.13671875 440.60571289 C-16.47155556 440.21633545 -16.47155556 440.21633545 -17.83335876 439.8190918 C-18.77522537 439.53976807 -19.71709198 439.26044434 -20.6875 438.97265625 C-22.22846092 438.52164551 -22.22846092 438.52164551 -23.80055237 438.06152344 C-26.03066443 437.40840431 -28.26022524 436.7534005 -30.48928833 436.09671021 C-35.96015928 434.48506245 -41.43428121 432.88454531 -46.9083271 431.28372002 C-48.86060765 430.71267654 -50.81274167 430.14113391 -52.76487732 429.56959534 C-62.58663751 426.69580941 -72.41796421 423.85608221 -82.25390625 421.03125 C-82.97563396 420.82391172 -83.69736168 420.61657345 -84.44095993 420.40295219 C-90.84847759 418.56232258 -97.25632138 416.72283299 -103.6652832 414.88723755 C-124.84268199 408.82118463 -145.98632027 402.64779019 -167.0324707 396.13842773 C-176.59578808 393.18499228 -186.17109456 390.38038095 -195.84765625 387.8203125 C-209.24809258 384.24168341 -222.5816211 380.44593389 -235.90551758 376.59326172 C-239.69460811 375.49794525 -243.48491912 374.40693293 -247.27539062 373.31640625 C-259.70637841 369.73299507 -272.1097293 366.07698979 -284.4780426 362.28286743 C-290.82725183 360.34057673 -297.19490685 358.53162269 -303.625 356.875 C-316.0320993 353.59969073 -328.36090176 350.06432361 -340.6875 346.5 C-341.67644257 346.21411011 -342.66538513 345.92822021 -343.68429565 345.63366699 C-355.24338738 342.28822247 -366.78032314 338.88941227 -378.27319336 335.32250977 C-386.3034417 332.85350804 -394.41603167 330.71518981 -402.53735352 328.56860352 C-412.12652156 326.014836 -421.57490834 323.10006027 -431 320 C-427.574735 316.40473104 -424.08352425 313.50493156 -420 310.6875 C-413.70547968 306.2875136 -407.59155676 301.67612071 -401.5 297 C-395.20426219 292.17285896 -388.87894768 287.42589546 -382.38671875 282.8671875 C-376.98684953 279.04807625 -371.74850383 275.02349719 -366.5 271 C-360.17437953 266.15183136 -353.82124527 261.37694244 -347.30541992 256.78808594 C-342.23589436 253.20367755 -337.27243878 249.48414155 -332.3125 245.75 C-325.71095713 240.78007424 -319.09339906 235.83444345 -312.4375 230.9375 C-311.26610474 230.07535889 -311.26610474 230.07535889 -310.07104492 229.19580078 C-306.15835075 226.31795219 -302.24234125 223.44467114 -298.32421875 220.57421875 C-289.96514679 214.44237662 -281.66738615 208.24191471 -273.4375 201.9375 C-266.31463345 196.48110561 -259.11674605 191.15686246 -251.81713867 185.93994141 C-245.87479828 181.67522957 -240.05410526 177.26302335 -234.25 172.8125 C-228.00749709 168.02626273 -221.7354612 163.3166591 -215.30444336 158.78735352 C-210.23519095 155.20326546 -205.2721117 151.48389531 -200.3125 147.75 C-191.37104152 141.01848501 -182.37824256 134.36054298 -173.35888672 127.73388672 C-168.60911705 124.24259462 -163.86489345 120.74376621 -159.12036133 117.24536133 C-155.19078065 114.34850075 -151.2586046 111.4553213 -147.3203125 108.5703125 C-137.96246308 101.70756483 -128.69797212 94.73606889 -119.48486328 87.68017578 C-114.18846947 83.63485215 -108.83897706 79.69593368 -103.38549805 75.86621094 C-97.98588743 72.04764934 -92.74802893 68.02324142 -87.5 64 C-81.20391471 59.17329812 -74.87896455 54.42590731 -68.38671875 49.8671875 C-62.98685258 46.0480784 -57.74844944 42.02356378 -52.5 38 C-46.72804361 33.57510557 -40.95263274 29.17946972 -35 25 C-27.94836548 20.03334396 -21.11429336 14.7934788 -14.28125 9.53125 C-1.87193627 0 -1.87193627 0 0 0 Z " fill="#06AC4F" transform="translate(574,130)"/>
<path d="M0 0 C4.60086221 0.62936964 8.95383129 1.43033512 13.42358398 2.69555664 C14.66377792 3.04425308 15.90397186 3.39294952 17.18174744 3.75221252 C18.53655917 4.13808976 19.89134023 4.52407469 21.24609375 4.91015625 C22.69366678 5.3191722 24.14134723 5.72780812 25.58912659 6.13609314 C29.4370366 7.22244559 33.28335611 8.3143306 37.12939453 9.4072876 C40.81247243 10.45281968 44.49714621 11.49267365 48.18164062 12.53320312 C76.80430851 20.6309327 105.39835976 28.82810279 134 37 C134.66 127.75 135.32 218.5 136 312 C150.47499987 316.59267482 150.47499987 316.59267482 165 321 C160.49019655 325.84733552 155.3394715 329.71005315 150.0625 333.6875 C149.11955078 334.40228516 148.17660156 335.11707031 147.20507812 335.85351562 C141.66216402 340.04006387 136.07311976 344.13912561 130.38891602 348.1315918 C124.98786409 351.95046158 119.74909805 355.97593898 114.5 360 C108.20391471 364.82670188 101.87896455 369.57409269 95.38671875 374.1328125 C89.98685258 377.9519216 84.74844944 381.97643622 79.5 386 C73.20391471 390.82670188 66.87896455 395.57409269 60.38671875 400.1328125 C54.04341706 404.61917576 47.91206141 409.38406608 41.74707031 414.1105957 C36.805767 417.88984387 31.83791332 421.60811624 26.75 425.1875 C18.65658841 430.89189251 10.83266348 436.94475961 3 443 C0.49108275 439.23662412 0.69355112 436.25592869 0.68214417 431.89431763 C0.67220053 431.05126953 0.66225689 430.20822144 0.65201193 429.33962643 C0.62098445 426.47658597 0.60450544 423.61364766 0.58813477 420.75048828 C0.569394 418.67063646 0.54993481 416.590791 0.5298214 414.510952 C0.47709449 408.72332201 0.43833814 402.93566975 0.4026382 397.1479125 C0.37874046 393.41944608 0.35125441 389.69102248 0.32266426 385.96258926 C-0.21838993 314.84149779 -0.11598561 243.71698491 -0.07202852 172.59439301 C-0.06396524 159.40293559 -0.05859315 146.21147889 -0.05493164 133.02001953 C-0.05466892 132.07620945 -0.05440619 131.13239937 -0.05413551 130.15998898 C-0.05282944 125.42003409 -0.05156598 120.68007919 -0.05032361 115.94012427 C-0.04014 77.29341231 -0.02269843 38.64670654 0 0 Z " fill="#DEDA02" transform="translate(7,137)"/>
<path d="M0 0 C31 0 31 0 37.125 5.5 C38.10160847 7.33039803 39.07634952 9.16372647 39.95947266 11.04101562 C41.88553325 14.66717945 44.65756691 17.64125189 47.3125 20.75 C51.81352497 26.2201925 56.16416512 31.78822665 60.4375 37.4375 C65.39758118 43.99076467 70.52227588 50.38084034 75.80444336 56.67749023 C81.07443814 62.98729031 85.96890544 69.45957707 91 76 C91.33 50.92 91.66 25.84 92 0 C103.22 0 114.44 0 126 0 C126 45.54 126 91.08 126 138 C100 138 100 138 94.0625 132.875 C93.02175983 131.19562381 91.98176793 129.51347415 91.03515625 127.77929688 C89.21064204 124.64319793 86.8513181 121.9295025 84.5625 119.125 C83.63099177 117.93994804 82.70261107 116.75243114 81.77734375 115.5625 C81.3169873 114.97210937 80.85663086 114.38171875 80.38232422 113.7734375 C79.92615723 113.18820312 79.46999023 112.60296875 79 112 C73.21591041 104.58697325 67.38509721 97.22030758 61.4375 89.9375 C52.65630636 79.17570233 44.33635023 68.11513364 36 57 C35.67 83.73 35.34 110.46 35 138 C23.45 138 11.9 138 0 138 C0 92.46 0 46.92 0 0 Z " fill="#5F6060" transform="translate(771,448)"/>
<path d="M0 0 C10.23 0 20.46 0 31 0 C39.91084855 10.02470462 39.91084855 10.02470462 43.6875 15.0625 C47.50534093 20.10446208 51.43467702 25.04123704 55.4375 29.9375 C60.92009252 36.64948836 66.30564358 43.42984022 71.63964844 50.26025391 C74.4293416 53.82797707 77.23304782 57.38471863 80.03369141 60.94384766 C83.70644991 65.6160735 87.35118992 70.30867275 91 75 C91.33 50.25 91.66 25.5 92 0 C103.22 0 114.44 0 126 0 C126 45.21 126 90.42 126 137 C100 137 100 137 92 129.3125 C90.08422852 126.75537109 90.08422852 126.75537109 88.81640625 124.5859375 C86.40679174 120.6299026 83.81976079 117.06430676 80.9375 113.4375 C79.75994141 111.88869141 79.75994141 111.88869141 78.55859375 110.30859375 C75.6192618 106.47382073 72.55901473 102.73948491 69.5 99 C64.75894492 93.20308576 60.15455567 87.32917884 55.6171875 81.37109375 C52.00864748 76.67886141 48.23649934 72.11617214 44.46484375 67.5546875 C43.94277344 66.91917969 43.42070313 66.28367187 42.8828125 65.62890625 C42.42277832 65.07275635 41.96274414 64.51660645 41.48876953 63.94360352 C39.53164421 61.38855683 37.78529059 58.67793588 36 56 C35.67 82.73 35.34 109.46 35 137 C23.45 137 11.9 137 0 137 C0 91.79 0 46.58 0 0 Z " fill="#5F6161" transform="translate(613,447)"/>
<path d="M0 0 C12.601875 -0.0825 25.20375 -0.165 38.1875 -0.25 C44.11819458 -0.30462402 44.11819458 -0.30462402 50.16870117 -0.36035156 C55.06115723 -0.37841797 55.06115723 -0.37841797 57.3639679 -0.3817749 C58.94510932 -0.38784836 60.52623425 -0.40177068 62.10725403 -0.42230225 C76.15081029 -0.59528524 88.70202306 0.78549029 100 10 C100.69867187 10.56332031 101.39734375 11.12664062 102.1171875 11.70703125 C110.58076791 19.29231558 115.35685583 30.67204498 116.1328125 41.92626953 C117.01382295 58.25065905 113.99448073 71.97622129 102.78125 84.47265625 C92.0831189 94.87554672 78.72053753 99.39500597 64.02734375 99.1953125 C62.94990906 99.19229126 62.94990906 99.19229126 61.85070801 99.18920898 C59.21290538 99.1788849 56.57519505 99.15096451 53.9375 99.125 C45.0584375 99.063125 45.0584375 99.063125 36 99 C36 111.54 36 124.08 36 137 C24.12 137 12.24 137 0 137 C0 91.79 0 46.58 0 0 Z M36 31 C36 43.54 36 56.08 36 69 C40.434375 69.061875 44.86875 69.12375 49.4375 69.1875 C50.81736084 69.21481201 52.19722168 69.24212402 53.61889648 69.27026367 C64.7998127 69.45900914 64.7998127 69.45900914 74.57568359 64.65356445 C79.73876276 58.8582904 80.39138549 53.34861159 80.25390625 45.87890625 C79.83926674 41.17753215 78.08063274 38.38938495 75.25 34.75 C70.40677724 30.98304896 64.69387933 30.75370061 58.75390625 30.8046875 C57.5532251 30.80968262 56.35254395 30.81467773 55.11547852 30.81982422 C53.61299561 30.83803223 52.1105127 30.85624023 50.5625 30.875 C45.756875 30.91625 40.95125 30.9575 36 31 Z " fill="#606060" transform="translate(931,448)"/>
<path d="M0 0 C3.1473325 2.8724563 6.11830387 5.8621531 9 9 C7.55975969 12.29782822 5.77162561 14.47430635 3.2265625 17.00390625 C2.4840625 17.74447266 1.7415625 18.48503906 0.9765625 19.24804688 C-0.18746094 20.39370117 -0.18746094 20.39370117 -1.375 21.5625 C-2.14328125 22.33013672 -2.9115625 23.09777344 -3.703125 23.88867188 C-11.04739277 31.17576109 -11.04739277 31.17576109 -14 33 C-15.485 32.505 -15.485 32.505 -17 32 C-17 31.34 -17 30.68 -17 30 C-17.57492187 29.73058594 -18.14984375 29.46117187 -18.7421875 29.18359375 C-21.04261681 27.97765936 -23.0239105 26.58598372 -25.125 25.0625 C-34.10725661 19.08893422 -43.33097037 17.9078946 -54 19 C-64.50269658 21.55683624 -72.38823662 26.75079024 -78.1953125 35.87890625 C-83.98740686 46.49774591 -84.00796397 57.68943817 -80.90625 69.10546875 C-77.92973141 78.6123665 -72.98275534 85.12628291 -64.0625 89.8125 C-52.6477423 95.03853365 -42.18921994 95.35459527 -30.21875 91.3359375 C-23.82071251 88.68044136 -17.77286579 85.13988243 -13.0625 80 C-12.381875 79.34 -11.70125 78.68 -11 78 C-8.12511992 78.15035984 -7.05538491 78.94758025 -4.95703125 80.93359375 C-4.24933594 81.75988281 -3.54164062 82.58617187 -2.8125 83.4375 C-0.37850256 86.26028904 2.0471235 89.04937082 4.62109375 91.74609375 C5.44738281 92.61363281 6.27367187 93.48117187 7.125 94.375 C7.89070313 95.16648437 8.65640625 95.95796875 9.4453125 96.7734375 C11 99 11 99 11.0078125 100.9921875 C5.31056078 112.3425262 -8.73322072 119.59060883 -20.0625 123.875 C-40.65638528 130.62597564 -62.37380622 129.40780002 -82 120 C-99.72356413 110.16353394 -111.05769207 95.52900989 -117.08984375 76.41015625 C-122.42079553 56.4362468 -119.11583595 35.77706326 -109.33203125 17.8046875 C-100.14267725 2.1001092 -84.38440319 -7.91168181 -67.125 -12.8125 C-44.41101821 -18.68680563 -18.74049461 -14.33096647 0 0 Z " fill="#5F6060" transform="translate(1184,459)"/>
</svg>
